# xmcd
#
# Track frame offsets:
#	150
#	7255
#	18232
#	27832
#	36812
#	45907
#	57430
#	69180
#	78170
#	92105
#	101550
#	114542
#	126807
#	141645
#	151530
#	162865
#
# Disc length: 2268 seconds
#
# Revision: 1
# Processed by: cddbd v1.4PL0 Copyright (c) Steve Scherf et al.
# Submitted via: audiograbber 1.80.04
#
DISCID=c208da10
DTITLE=Noel Boggs - The Very Best
DYEAR=1900
DGENRE=Country
TTITLE0=Steel Guitar Rag
TTITLE1=Cherokee
TTITLE2=Steelin' Home
TTITLE3=Wabash Blues
TTITLE4=Lover
TTITLE5=Beer Barrell Polka
TTITLE6=Coquette (a.k.a. Little Coquette)
TTITLE7=Caravan
TTITLE8=September Song
TTITLE9=Paradise Isle
TTITLE10=Tenderly
TTITLE11=Beautiful Ohio
TTITLE12=Magic Isle
TTITLE13=The Birth Of The Blues
TTITLE14=Perdido
TTITLE15=Dardenella
EXTD=
EXTT0=
EXTT1=
EXTT2=
EXTT3=
EXTT4=
EXTT5=
EXTT6=
EXTT7=
EXTT8=
EXTT9=
EXTT10=
EXTT11=
EXTT12=
EXTT13=
EXTT14=
EXTT15=
PLAYORDER=
